<?xml version="1.0" encoding="utf-8"?>
<svg viewBox="351.423 40 661.577 687" xmlns="http://www.w3.org/2000/svg" xmlns:xlink="http://www.w3.org/1999/xlink">
  <defs>
    <linearGradient id="Gradiente_sem_nome_12" x1="2338.08" y1="816.38" x2="128.71" y2="603.64" gradientUnits="userSpaceOnUse">
      <stop offset="0.51" stop-color="#d1be95"/>
      <stop offset="0.58" stop-color="#cdba92"/>
      <stop offset="0.64" stop-color="#bfae88"/>
      <stop offset="0.71" stop-color="#a99a79"/>
      <stop offset="0.78" stop-color="#8a7e63"/>
      <stop offset="0.86" stop-color="#635a46"/>
      <stop offset="0.93" stop-color="#332e24"/>
      <stop offset="1"/>
    </linearGradient>
    <linearGradient id="Gradiente_sem_nome_13" x1="725.05" y1="395.1" x2="699.13" y2="685.44" gradientUnits="userSpaceOnUse">
      <stop offset="0.8" stop-color="#82745b"/>
      <stop offset="0.83" stop-color="#7d7058"/>
      <stop offset="0.87" stop-color="#6f634e"/>
      <stop offset="0.91" stop-color="#574e3d"/>
      <stop offset="0.95" stop-color="#363026"/>
      <stop offset="0.99" stop-color="#0c0b09"/>
      <stop offset="1"/>
    </linearGradient>
    <linearGradient id="Gradiente_sem_nome_6" x1="1327.38" y1="442.41" x2="670.61" y2="379.18" gradientUnits="userSpaceOnUse">
      <stop offset="0.52" stop-color="#e2cfaa"/>
      <stop offset="0.53" stop-color="#d4c29f"/>
      <stop offset="0.58" stop-color="#a3957a"/>
      <stop offset="0.63" stop-color="#776d5a"/>
      <stop offset="0.68" stop-color="#524b3e"/>
      <stop offset="0.73" stop-color="#343027"/>
      <stop offset="0.79" stop-color="#1d1b16"/>
      <stop offset="0.85" stop-color="#0d0c0a"/>
      <stop offset="0.91" stop-color="#030302"/>
      <stop offset="1"/>
    </linearGradient>
    <linearGradient id="Gradiente_sem_nome_3" x1="601.2" y1="823.29" x2="629.51" y2="499.68" xlink:href="#Gradiente_sem_nome_12"/>
    <style>.cls-1{fill:#366;}.cls-2{fill:url(#Gradiente_sem_nome_12);}.cls-3{fill:url(#Gradiente_sem_nome_13);}.cls-4{fill:#b2a283;}.cls-5{fill:#96886c;}.cls-6{fill:#d1be95;}.cls-7{fill:#e2cfaa;}.cls-8{fill:url(#Gradiente_sem_nome_6);}.cls-9{fill:url(#Gradiente_sem_nome_3);}.cls-10{fill:#8c806c;}.cls-11{fill:#010;}.cls-12{fill:#900;}.cls-13{fill:#d30f0f;}.cls-14{fill:#191919;}.cls-15{fill:#333;}.cls-16{fill:#0c0;}</style>
  </defs>
  <g id="base">
    <polygon class="cls-2" points="495 660 756 707 908 644 672 613 495 660"/>
    <ellipse class="cls-3" cx="708.5" cy="580.5" rx="98.5" ry="82.5"/>
    <polygon class="cls-4" points="800 630 756 644 727.68 620.4 808 612 800 630"/>
    <polygon class="cls-5" points="508 590 539 613 756 644 696 594 508 590"/>
    <polygon class="cls-6" points="495 678 756 727 756 707 495 660 495 660 495 678"/>
    <polygon class="cls-7" points="756 707 908 644 908 662 756 727 756 707"/>
  </g>
  <g id="tela">
    <polygon class="cls-8" points="954 193 1013 292 1003 598 934 618 954 193"/>
    <path class="cls-7" d="M885,645l59-11L963,84a113.29,113.29,0,0,0-58-44c-24.82,19.23-119.88,97.53-147,238-30.74,159.18,48.79,279,64,301Z"/>
    <path class="cls-6" d="M359,526a1066.54,1066.54,0,0,1,25.51-390.5,9.62,9.62,0,0,1,2.43-5.75,9.44,9.44,0,0,1,5.47-3L905,40a2488.84,2488.84,0,0,0-24,297c-1.83,88.19,1.17,170.2,7,245Z"/>
    <path class="cls-9" d="M885,645l3-63L359,526v43.74a4.87,4.87,0,0,0,4.22,4.83Z"/>
    <path class="cls-10" d="M800.66,97.76,431.09,151.25A12,12,0,0,0,420.71,162a884.34,884.34,0,0,0-24.87,315.33,11.56,11.56,0,0,0,2.88,8.47,12,12,0,0,0,8.24,4l377.9,24.47a12.08,12.08,0,0,0,13-11.3c.59-3.17,3.14-24-3.86-26a121.68,121.68,0,0,0-13-47L515.91,348.05a11.61,11.61,0,0,1-2.87-1.3c-29.25-18.73-29.21-60.54.15-79.77a12.19,12.19,0,0,1,2.37-1.18L794,156c4.53-1.7,19.8-30.32,20-35l.4-11.33A11.8,11.8,0,0,0,800.66,97.76Z"/>
    <path class="cls-11" d="M806.12,112.58a14.36,14.36,0,0,0-9.3-1.76l-357,52.65a10.92,10.92,0,0,0-9.43,9.93,683.68,683.68,0,0,0-19.69,293.06,10.51,10.51,0,0,0,2.68,7.66,11.07,11.07,0,0,0,7.52,3.57L787,500.74a11,11,0,0,0,11.83-10.29C795.47,434.73,794.34,373.29,797,307a1835.42,1835.42,0,0,1,17-186C814,120.47,814,117.15,806.12,112.58Z" style="fill: rgb(17, 17, 0);"/>
  </g>
  <g id="btn">
    <path class="cls-12" d="M428,557.5c0,5.8-3.81,10.3-8.5,10.5-23.5,1-8.5-4.7-8.5-10.5S396,546,419.5,547C424.19,547.2,428,551.7,428,557.5Z"/>
    <ellipse class="cls-13" cx="410.5" cy="557.5" rx="8.5" ry="10.5"/>
    <path class="cls-14" d="M488.06,572.56c0,3.58-2.35,6.36-5.25,6.48-14.52.62-5.25-2.9-5.25-6.48s-9.27-7.11,5.25-6.49C485.71,566.19,488.06,569,488.06,572.56Z"/>
    <ellipse class="cls-15" cx="477.25" cy="572.56" rx="5.25" ry="6.49"/>
    <path class="cls-14" d="M469.06,570.56c0,3.58-2.35,6.36-5.25,6.48-14.52.62-5.25-2.9-5.25-6.48s-9.27-7.11,5.25-6.49C466.71,564.19,469.06,567,469.06,570.56Z"/>
    <ellipse class="cls-15" cx="458.25" cy="570.56" rx="5.25" ry="6.49"/>
  </g>
  <g id="logo">
    <path class="cls-16" d="M448.43,289.43l-12.75.32V303l5.43,0a1.52,1.52,0,0,1,1.27.82,3.41,3.41,0,0,1,.54,1.93,3.64,3.64,0,0,1-.53,2,1.52,1.52,0,0,1-1.28.81l-5.43,0v13.34l12.79.32a1.65,1.65,0,0,1,1.3.85,3.55,3.55,0,0,1,.55,2,3.26,3.26,0,0,1-.57,1.95,1.54,1.54,0,0,1-1.32.77l-16.26-.56V284.36l16.26-.55a1.51,1.51,0,0,1,1.32.8,3.41,3.41,0,0,1,.57,2,3.45,3.45,0,0,1-.57,2A1.65,1.65,0,0,1,448.43,289.43Z" style="fill: rgb(236, 200, 0);"/>
    <path class="cls-16" d="M463.3,283.3l10.17-.34c1.27,0,2.47.69,3.6,2.2a9,9,0,0,1,1.72,5.61,3.66,3.66,0,0,1-.61,2.12,1.75,1.75,0,0,1-1.35.89,1.45,1.45,0,0,1-1.41-.65,9.12,9.12,0,0,1-.72-2.48c-.23-1.21-.74-1.8-1.53-1.78l-9.67.24a.62.62,0,0,0-.69.68,1.81,1.81,0,0,0,.28.94l14.62,27.18a9,9,0,0,1,1.08,4.31,7.9,7.9,0,0,1-1.31,4.52,3.43,3.43,0,0,1-2.89,1.87L464,328.25a4.46,4.46,0,0,1-3.58-2.42,9.31,9.31,0,0,1-1.5-5.1c0-2.11.66-3.15,2-3.12a1.62,1.62,0,0,1,1.33.85,3.53,3.53,0,0,1,.54,2,2.58,2.58,0,0,0,.43,1.53,1.32,1.32,0,0,0,1.06.64l9.75.24c.42,0,.64-.23.64-.72a1.88,1.88,0,0,0-.29-.9L460,294.08a8.74,8.74,0,0,1-1-4.15,8.29,8.29,0,0,1,1.27-4.59A3.86,3.86,0,0,1,463.3,283.3Z" style="fill: rgb(236, 200, 0);"/>
    <path class="cls-16" d="M488.2,326.13V282.46l15-.51a5.35,5.35,0,0,1,4.6,2.55,10.5,10.5,0,0,1,1.95,6.41v11.4a10.66,10.66,0,0,1-1.94,6.43,5.52,5.52,0,0,1-4.61,2.63l-10.8-.08v15a3.51,3.51,0,0,1-.61,2.08,1.71,1.71,0,0,1-1.48.81,1.87,1.87,0,0,1-1.51-.91A3.57,3.57,0,0,1,488.2,326.13Zm4.22-20.77h10.8a1.86,1.86,0,0,0,1.52-.88,3.53,3.53,0,0,0,.65-2.14V291a3.47,3.47,0,0,0-.65-2.12,1.81,1.81,0,0,0-1.52-.84l-10.8.27Z" style="fill: rgb(236, 200, 0);"/>
    <path class="cls-16" d="M524.68,287.5v15.1l7.08,0a2,2,0,0,1,1.65.93,3.58,3.58,0,0,1,.7,2.21,3.74,3.74,0,0,1-.69,2.28,2,2,0,0,1-1.66.92l-7.08,0V324.1l16.68.42a2.18,2.18,0,0,1,1.69,1,3.64,3.64,0,0,1,.73,2.28A3.4,3.4,0,0,1,543,330a2.1,2.1,0,0,1-1.73.86l-21.19-.72V281.37l21.19-.72a2,2,0,0,1,1.73.9,3.84,3.84,0,0,1,0,4.53,2.21,2.21,0,0,1-1.73,1Z" style="fill: rgb(236, 200, 0);"/>
    <path class="cls-16" d="M581.22,328.88a3.57,3.57,0,0,1-.81,2.35,2.37,2.37,0,0,1-1.91.9l-23.34-.79V283.41a3.74,3.74,0,0,1,.74-2.29,2.27,2.27,0,0,1,1.76-1,2.12,2.12,0,0,1,1.77.91,3.57,3.57,0,0,1,.75,2.27V325l18.32.46a2.54,2.54,0,0,1,1.91,1A3.76,3.76,0,0,1,581.22,328.88Z" style="fill: rgb(236, 200, 0);"/>
    <path class="cls-16" d="M593.72,322.45v-40.1a3.92,3.92,0,0,1,.82-2.48,2.57,2.57,0,0,1,2-1.1,2.38,2.38,0,0,1,2,1,3.59,3.59,0,0,1,.83,2.37v40.47a3.66,3.66,0,0,0,.83,2.36,2.6,2.6,0,0,0,2,1.05l11.7.29a2.52,2.52,0,0,0,2.05-.94,3.53,3.53,0,0,0,.86-2.4V281.67a4,4,0,0,1,.85-2.57,2.71,2.71,0,0,1,2.07-1.11,2.5,2.5,0,0,1,2.09,1,3.78,3.78,0,0,1,.87,2.53V323A11.08,11.08,0,0,1,620,330.4a7.55,7.55,0,0,1-6.17,2.93l-11.7-.4a7.7,7.7,0,0,1-5.92-3.2A11.33,11.33,0,0,1,593.72,322.45Z" style="fill: rgb(236, 200, 0);"/>
    <path class="cls-16" d="M668.62,280.13v55.05l-8.77-.29L642.76,290V330.7a3.67,3.67,0,0,1-.91,2.53,2.68,2.68,0,0,1-2.19,1,2.87,2.87,0,0,1-2.18-1.12,3.84,3.84,0,0,1-.89-2.56V277.41l8.17-.28L662,321.82V280.33a4,4,0,0,1,1-2.7,3.15,3.15,0,0,1,2.35-1.2,2.87,2.87,0,0,1,2.33,1A3.87,3.87,0,0,1,668.62,280.13Z" style="fill: rgb(236, 200, 0);"/>
    <path class="cls-16" d="M703.46,328.63l13.09.33a3.69,3.69,0,0,1,2.66,1.21,4,4,0,0,1,1.12,2.82,3.72,3.72,0,0,1-1.12,2.76,3.51,3.51,0,0,1-2.66,1.06L703,336.35a10,10,0,0,1-5.24-1.92,10.48,10.48,0,0,1-3.73-4l-8-17.17a18.65,18.65,0,0,1-1.59-7.5,16.7,16.7,0,0,1,1.51-7.36l8.09-17a12.09,12.09,0,0,1,3.64-4.29,8.5,8.5,0,0,1,4.82-2l14.31-.49a3.35,3.35,0,0,1,2.62,1.08,3.84,3.84,0,0,1,1.08,2.74,4.22,4.22,0,0,1-1.08,2.87,3.52,3.52,0,0,1-2.61,1.26L703,283c-1.13,0-2,.78-2.75,2.23l-7.81,16a9.94,9.94,0,0,0-.9,4.42,10.58,10.58,0,0,0,1,4.73L700,326.11A3.69,3.69,0,0,0,703.46,328.63Z" style="fill: rgb(236, 200, 0);"/>
    <path class="cls-16" d="M738,331.94l15.78-55.48a4.08,4.08,0,0,1,4-3.17c2-.07,3.27.75,3.79,2.47L778,333.45a4.13,4.13,0,0,1,.2,1.26,4,4,0,0,1-1.19,2.93,3.6,3.6,0,0,1-2.73,1.12,4.06,4.06,0,0,1-4.14-3.15l-3.25-11.35-18.39-.35-3.42,11.71a2.28,2.28,0,0,1-1.17,1.42,3.77,3.77,0,0,1-2.23.62,3.83,3.83,0,0,1-2.83-1.29,4.27,4.27,0,0,1-1.11-3A5.16,5.16,0,0,1,738,331.94Zm19.77-39.65-6.84,23.42,13.58.14Z" style="fill: rgb(236, 200, 0);"/>
  </g>
</svg>
